<?xml version="1.0" encoding="UTF-8" standalone="no"?>
<svg
   xmlns:dc="http://purl.org/dc/elements/1.1/"
   xmlns:cc="http://creativecommons.org/ns#"
   xmlns:rdf="http://www.w3.org/1999/02/22-rdf-syntax-ns#"
   xmlns:svg="http://www.w3.org/2000/svg"
   xmlns="http://www.w3.org/2000/svg"
   xmlns:sodipodi="http://sodipodi.sourceforge.net/DTD/sodipodi-0.dtd"
   xmlns:inkscape="http://www.inkscape.org/namespaces/inkscape"
   width="413.76004"
   height="150"
   version="1.1"
   id="svg27"
   sodipodi:docname="logo.svg"
   inkscape:version="0.92.3 (2405546, 2018-03-11)">
  <metadata
     id="metadata31">
    <rdf:RDF>
      <cc:Work
         rdf:about="">
        <dc:format>image/svg+xml</dc:format>
        <dc:type
           rdf:resource="http://purl.org/dc/dcmitype/StillImage" />
        <dc:title></dc:title>
      </cc:Work>
    </rdf:RDF>
  </metadata>
  <sodipodi:namedview
     pagecolor="#ffffff"
     bordercolor="#666666"
     borderopacity="1"
     objecttolerance="10"
     gridtolerance="10"
     guidetolerance="10"
     inkscape:pageopacity="0"
     inkscape:pageshadow="2"
     inkscape:window-width="1853"
     inkscape:window-height="1025"
     id="namedview29"
     showgrid="false"
     inkscape:zoom="3.9652174"
     inkscape:cx="98.587914"
     inkscape:cy="19.898366"
     inkscape:window-x="67"
     inkscape:window-y="27"
     inkscape:window-maximized="1"
     inkscape:current-layer="svg27"
     fit-margin-top="0"
     fit-margin-left="0"
     fit-margin-right="0"
     fit-margin-bottom="0"
     inkscape:pagecheckerboard="true" />
  <defs
     id="SvgjsDefs2339" />
  <g
     id="SvgjsG2340"
     featurekey="root"
     style="fill:#ffffff"
     transform="matrix(3,0,0,3,0,-225.00116)" />
  <g
     id="SvgjsG2341"
     featurekey="container1"
     transform="scale(0.73403474)"
     style="fill:#072a65">
    <defs
       id="defs4" />
    <g
       id="g12">
      <path
         d="m 102.174,199.588 c 53.8,0 97.413,-43.613 97.413,-97.413 0,-53.8 -43.613,-97.413 -97.413,-97.413 -53.8,0 -97.413,43.613 -97.413,97.413 0,53.8 43.614,97.413 97.413,97.413 z m 0,-189.826 c 50.957,0 92.413,41.457 92.413,92.413 0,50.956 -41.456,92.413 -92.413,92.413 -50.957,0 -92.413,-41.457 -92.413,-92.413 0,-50.956 41.457,-92.413 92.413,-92.413 z"
         id="path6"
         inkscape:connector-curvature="0" />
      <path
         d="m 102.174,191.585 c 49.38,0 89.41,-40.03 89.41,-89.41 0,-49.38 -40.03,-89.41 -89.41,-89.41 -49.38,0 -89.41,40.03 -89.41,89.41 0,49.38 40.03,89.41 89.41,89.41 z m 0,-176.82 c 48.198,0 87.41,39.212 87.41,87.41 0,48.198 -39.212,87.41 -87.41,87.41 -48.198,0 -87.41,-39.212 -87.41,-87.41 0,-48.198 39.212,-87.41 87.41,-87.41 z"
         id="path8"
         inkscape:connector-curvature="0" />
      <path
         d="m 102.174,204.35 c 56.339,0 102.174,-45.835 102.174,-102.175 C 204.348,45.835 158.513,0 102.174,0 45.835,0 0,45.835 0,102.175 0,158.515 45.835,204.35 102.174,204.35 Z m 0,-202.35 c 55.236,0 100.174,44.938 100.174,100.175 0,55.237 -44.937,100.175 -100.174,100.175 C 46.938,202.35 2,157.411 2,102.175 2,46.939 46.938,2 102.174,2 Z"
         id="path10"
         inkscape:connector-curvature="0" />
    </g>
  </g>
  <g
     id="SvgjsG2342"
     featurekey="symbol1"
     transform="matrix(0.96916004,0,0,0.96916004,25.941519,26.4)"
     style="fill:#072a65">
    <g
       id="g21">
      <polygon
         points="93.337,30.328 53.954,52.16 53.954,100 93.337,77.072 "
         id="polygon15"
         style="fill:#072a65" />
      <polygon
         points="6.664,30.328 6.664,77.072 46.047,100 46.047,52.16 "
         id="polygon17"
         style="fill:#072a65" />
      <polygon
         points="50.079,45.237 50.105,45.222 89.999,23.144 50.105,0 10.213,23.144 "
         id="polygon19"
         style="fill:#072a65" />
    </g>
  </g>
  <g
     id="SvgjsG2343"
     featurekey="text1"
     transform="matrix(2.4519623,0,0,2.4519623,170.88305,32.290503)"
     style="fill:#072a65">
    <path
       d="m 12.746,10.441 c 0.18644,0 0.35576,0.15271 0.35576,0.33915 v 12.881 c 0,0.18644 -0.15254,0.33881 -0.33898,0.33881 h -0.72881 c -0.59322,0 -1.1186,-0.37288 -1.7119,-1.0508 l -6.1695,-6.8814 v 7.5763 c 0,0.18644 -0.16949,0.33898 -0.35593,0.33898 l -2.1695,0.01678 c -0.20339,0 -0.35593,-0.15238 -0.35593,-0.35576 v -12.864 c 0,-0.18644 0.15254,-0.33898 0.33898,-0.33898 h 1.2881 c 0.18644,0 0.30508,0.0678 0.49169,0.25424 l 6.8305,7.7966 v -7.7119 c 0,-0.18644 0.13559,-0.33898 0.33898,-0.33898 h 2.1864 z m 11.524981,2.695 -5.7459,1.66e-4 v 2.8983 h 3.0508 c 0.18661,0 0.3561,0.15254 0.3561,0.33898 v 2 c 0,0.20339 -0.15254,0.35593 -0.35593,0.35593 h -3.0508 v 2.5763 h 5.7458 c 0.18644,0 0.35593,0.15254 0.35593,0.33898 v 2 c 0,0.20339 -0.15254,0.35576 -0.35593,0.35576 h -8.2712 c -0.20339,0 -0.35593,-0.15238 -0.35593,-0.35576 v -12.864 c 0,-0.18644 0.13559,-0.33898 0.33898,-0.33898 h 8.2881 c 0.18644,0 0.35593,0.15254 0.35593,0.33898 v 2.0169 c 0,0.20322 -0.15254,0.33881 -0.35593,0.33881 z m 12.711833,-2.695 c 0.18644,0 0.33898,0.13559 0.33898,0.33898 v 2.0169 c 0,0.18644 -0.15254,0.33898 -0.33898,0.33898 h -3.6102 v 10.508 c 0,0.22034 -0.13559,0.35576 -0.32203,0.35576 h -1.678 c -0.55932,0 -0.88136,-0.38983 -0.88136,-0.91525 v -9.9492 h -3.6102 c -0.18644,0 -0.35593,-0.13559 -0.35593,-0.33881 v -2 c 0,-0.20339 0.15254,-0.35593 0.35593,-0.35593 h 10.102 z m 9.08483,13.67764 c 3.7966,0 6.8983,-3.0507 6.8983,-6.9151 0,-3.8136 -3.1017,-6.8814 -6.8983,-6.8814 -3.8305,0 -6.9322,3.0678 -6.9322,6.8814 0,3.8644 3.1017,6.9151 6.9322,6.9151 z m 0,-2.79644 c -2.1695,0 -4.0169,-1.9153 -4.0169,-4.1186 0,-2.1864 1.8475,-4.0847 4.0169,-4.0847 2.1525,0 3.9831,1.8983 3.9831,4.0847 0,2.2034 -1.8305,4.1186 -3.9831,4.1186 z m 21.661205,-4.678 c 1.2712,0.79661 2.068,2.051 2.068,3.4747 0,2.2542 -2,3.8812 -4.0169,3.8812 h -5.4746 c -0.20339,0 -0.35593,-0.15238 -0.35593,-0.35576 v -12.864 c 0,-0.18644 0.13543,-0.33898 0.33881,-0.33898 h 4.9322 c 2.2373,0 3.8136,2 3.8136,3.5932 0,1.0678 -0.42373,1.9659 -1.3051,2.61 z m -3.0677,-0.7795 c 1.8814,0 1.9153,-2.7288 0,-2.7288 h -1.8305 v 2.7288 z m 0.4236,5.4407 c 2.1695,0 2.2034,-2.8644 0,-2.8644 h -2.2542 v 2.8644 z m 13.559166,2.81324 c 3.7966,0 6.8983,-3.0507 6.8983,-6.9151 0,-3.8136 -3.1017,-6.8814 -6.8983,-6.8814 -3.8305,0 -6.9322,3.0678 -6.9322,6.8814 0,3.8644 3.1017,6.9151 6.9322,6.9151 z m 0,-2.79644 c -2.1695,0 -4.0169,-1.9153 -4.0169,-4.1186 0,-2.1864 1.8475,-4.0847 4.0169,-4.0847 2.1525,0 3.9831,1.8983 3.9831,4.0847 0,2.2034 -1.8305,4.1186 -3.9831,4.1186 z m 16.084707,-4.1019 4.2712,6.4237 c 0.10153,0.15254 0,0.35576 -0.18644,0.35576 h -2.7966 c -0.20339,0 -0.25424,-0.18644 -0.37288,-0.35593 l -2.5932,-3.9153 -2.5932,3.9153 c -0.10169,0.16949 -0.16949,0.35593 -0.37288,0.35593 h -2.7797 c -0.18644,0 -0.28814,-0.20322 -0.18644,-0.35576 l 4.2712,-6.4237 -4.2712,-6.4407 c -0.11864,-0.18644 -0.0339,-0.33898 0.16949,-0.33898 h 2.7966 c 0.18644,0 0.23729,0.15254 0.35593,0.33898 l 2.6102,3.9322 2.6102,-3.9322 c 0.11864,-0.18644 0.16949,-0.33898 0.3561,-0.33898 h 2.8134 c 0.20339,0 0.28814,0.15254 0.16949,0.33898 z"
       id="path24"
       inkscape:connector-curvature="0" />
  </g>
</svg>
